<svg width="1008" height="555" viewBox="0 0 1008 555" fill="none" xmlns="http://www.w3.org/2000/svg">
<g clip-path="url(#clip0_3_6)">
<rect width="1008" height="555" fill="white" fill-opacity="1"/>
<rect x="268.167" y="24.7797" width="668.28" height="145.704" rx="4" fill="#2E8FEA"/>
<ellipse cx="334.116" cy="97.6318" rx="21.9829" ry="24.284" fill="white"/>
<ellipse cx="422.048" cy="97.6318" rx="21.9829" ry="24.284" fill="white"/>
<path d="M280.819 102.489L312.133 121.9C312.133 121.9 289.766 218.954 280.819 267.482C271.872 316.009 180.915 264.483 213.717 218.954L280.819 102.489Z" fill="#308FE6" stroke="#308FE6"/>
<path d="M923.796 102.489L892.482 121.9C892.482 121.9 914.849 218.954 923.796 267.482C932.743 316.009 1023.7 264.483 990.898 218.954L923.796 102.489Z" fill="#308FE6" stroke="#308FE6"/>
<path d="M466.013 112.202H514.376V262.763C514.376 262.763 514.376 287.047 474.807 287.047C435.237 287.047 435.237 267.62 435.237 267.62L466.013 112.202Z" fill="#308FE6" stroke="#308FE6"/>
<path d="M721.016 112.202H672.654V262.763C672.654 262.763 672.654 287.047 712.223 287.047C751.792 287.047 751.792 267.62 751.792 267.62L721.016 112.202Z" fill="#308FE6" stroke="#308FE6"/>
<path d="M312.776 307.095V508.066C312.776 509.171 313.672 510.066 314.776 510.066H877.464C878.568 510.066 879.464 509.171 879.464 508.066V307.095" stroke="#308FE6" stroke-width="49"/>
<path d="M99.6298 345.062L70.2722 42.4824L240.611 13.0618L282.405 29.6524L288.74 94.9457L185.986 112.724L188.304 136.612L230.57 129.083L272.364 145.673L278.622 210.17L196.841 224.599L200.472 262.023L270.41 249.784L312.204 266.374L318.5 331.27L141.424 361.652L99.6298 345.062ZM157.396 273.633L150.713 204.757L232.494 190.328L227.009 133.794L145.228 148.222L139.859 92.882L242.612 75.1036L237.05 17.7728L74.6061 45.734L103.23 340.749L272.373 311.427L266.849 254.495L157.396 273.633Z" fill="#2064A3"/>
<path d="M393.511 414.503C390.191 417.237 388.336 422.12 387.945 429.151C387.75 435.987 388.922 443.018 391.461 450.245C394.195 457.276 398.297 463.526 403.765 468.995C409.234 474.464 416.07 477.198 424.273 477.198C429.547 477.198 434.039 475.929 437.75 473.389C441.656 470.85 444.781 467.725 447.125 464.014C449.664 460.108 451.519 455.811 452.691 451.124C453.863 446.436 454.449 441.846 454.449 437.354C454.449 430.909 453.179 425.538 450.64 421.241C448.297 416.944 445.074 413.233 440.972 410.108C437.066 406.788 432.476 404.054 427.203 401.905C422.125 399.561 416.949 397.218 411.676 394.874C406.793 392.921 400.933 390.479 394.097 387.55C387.261 384.425 380.719 380.421 374.469 375.538C368.219 370.46 362.847 364.307 358.355 357.081C354.058 349.659 351.91 340.577 351.91 329.835C351.91 322.804 353.765 315.675 357.476 308.448C361.187 301.221 366.461 294.679 373.297 288.819C380.133 282.764 388.336 277.882 397.906 274.171C407.672 270.46 418.609 268.604 430.719 268.604C442.633 268.604 452.301 269.679 459.722 271.827C467.144 273.975 472.906 276.807 477.008 280.323C481.109 283.643 483.844 287.354 485.211 291.456C486.773 295.362 487.554 299.073 487.554 302.589C487.554 306.104 486.48 309.718 484.332 313.429C482.183 316.944 479.644 320.264 476.715 323.389C473.785 326.319 470.758 328.956 467.633 331.3C464.508 333.448 461.969 334.913 460.015 335.694C460.992 333.155 461.969 329.639 462.945 325.147C463.922 320.655 463.629 316.163 462.066 311.671C460.699 307.179 457.281 303.272 451.812 299.952C446.539 296.632 437.945 294.971 426.031 294.971C419.195 294.971 412.554 296.046 406.109 298.194C399.664 300.343 393.902 303.175 388.824 306.69C383.941 310.011 380.035 313.819 377.105 318.116C374.176 322.413 372.711 326.807 372.711 331.3C372.711 335.596 374.176 339.6 377.105 343.311C380.23 346.827 384.332 350.245 389.41 353.565C394.683 356.69 400.64 359.815 407.281 362.94C414.117 366.065 421.246 369.19 428.668 372.315C435.894 375.44 443.023 378.858 450.054 382.569C457.086 386.085 463.336 390.186 468.804 394.874C474.469 399.561 478.961 404.835 482.281 410.694C485.601 416.554 487.261 423.292 487.261 430.909C487.261 439.112 485.699 447.022 482.574 454.639C479.644 462.061 475.347 468.604 469.683 474.268C464.215 479.932 457.476 484.425 449.469 487.745C441.461 491.261 432.379 493.018 422.222 493.018C413.238 493.018 404.742 491.554 396.734 488.624C388.726 485.694 381.695 481.886 375.64 477.198C369.781 472.511 365.094 467.335 361.578 461.671C358.062 456.007 356.304 450.44 356.304 444.971C356.304 439.112 357.574 434.132 360.113 430.03C362.847 425.929 366.168 422.706 370.074 420.362C373.98 417.823 377.984 416.065 382.086 415.089C386.383 414.112 390.191 413.917 393.511 414.503ZM530.621 421.534C532.965 414.503 534.918 408.546 536.48 403.663C538.238 398.78 539.703 394.874 540.875 391.944C542.242 388.429 543.414 385.596 544.39 383.448C545.562 380.323 546.832 377.198 548.199 374.073C549.761 370.948 551.324 368.116 552.886 365.577C554.449 362.843 555.914 360.596 557.281 358.839C558.648 357.081 559.82 355.909 560.797 355.323C561.578 354.932 563.336 354.932 566.07 355.323C569 355.714 572.125 356.69 575.445 358.253C578.961 359.62 582.183 361.573 585.113 364.112C588.238 366.651 590.386 369.776 591.558 373.487C592.73 377.979 593.121 383.839 592.73 391.065C592.34 398.292 591.754 405.714 590.972 413.331C590.386 420.948 589.898 428.175 589.508 435.011C589.312 441.846 589.801 447.022 590.972 450.538C591.754 452.491 592.535 454.444 593.316 456.397C594.097 457.96 594.976 459.62 595.953 461.378C597.125 462.94 598.394 464.307 599.761 465.479C594.097 467.628 589.508 469.19 585.992 470.167C582.672 471.339 580.133 472.12 578.375 472.511C576.226 473.096 574.761 473.194 573.98 472.804C572.418 472.218 570.953 470.753 569.586 468.409C568.219 466.065 567.047 462.354 566.07 457.276C565.679 455.714 565.582 452.979 565.777 449.073C565.972 445.167 566.265 440.772 566.656 435.889C567.047 431.007 567.437 425.929 567.828 420.655C568.219 415.186 568.609 410.108 569 405.421C569.39 400.733 569.586 396.632 569.586 393.116C569.781 389.6 569.781 387.257 569.586 386.085C568.609 382.764 567.242 380.421 565.484 379.054C563.726 377.491 562.359 377.296 561.383 378.468C559.039 381.397 556.402 386.475 553.472 393.702C550.738 400.733 548.101 408.448 545.562 416.846C543.023 425.05 540.777 433.253 538.824 441.456C537.066 449.659 535.992 456.397 535.601 461.671C535.601 462.843 534.625 464.112 532.672 465.479C530.914 466.651 528.863 467.725 526.519 468.702C524.371 469.679 522.222 470.264 520.074 470.46C517.926 470.85 516.461 470.557 515.679 469.581C515.094 468.995 513.824 467.628 511.871 465.479C510.113 463.331 509.136 459.718 508.941 454.639C508.551 449.757 508.551 443.116 508.941 434.718C509.332 426.124 509.429 417.139 509.234 407.764V386.085C509.234 377.296 509.136 365.186 508.941 349.757C508.941 334.132 508.844 313.526 508.648 287.94C510.797 286.768 512.75 285.792 514.508 285.011C516.265 284.034 517.926 283.253 519.488 282.667C521.246 281.886 522.906 281.3 524.469 280.909C532.867 278.761 537.261 278.761 537.652 280.909C537.847 282.862 537.652 289.112 537.066 299.659C536.871 304.151 536.578 309.815 536.187 316.651C535.797 323.487 535.308 331.788 534.722 341.554C534.332 351.319 533.746 362.843 532.965 376.124C532.379 389.21 531.597 404.346 530.621 421.534ZM694.683 417.139C694.293 424.757 692.926 431.788 690.582 438.233C688.433 444.679 685.406 450.343 681.5 455.225C677.594 459.913 672.906 463.624 667.437 466.358C662.164 469.093 656.304 470.557 649.859 470.753C644.195 470.948 638.824 469.581 633.746 466.651C628.863 463.721 624.566 459.62 620.855 454.346C617.144 449.073 614.312 442.823 612.359 435.596C610.601 428.175 610.113 420.167 610.894 411.573C611.48 401.612 613.336 393.116 616.461 386.085C619.586 378.858 622.906 372.901 626.422 368.214C629.937 363.526 633.16 360.108 636.09 357.96C639.215 355.616 641.168 354.249 641.949 353.858C643.316 353.272 644.586 353.175 645.758 353.565C646.929 353.761 648.199 354.054 649.566 354.444C649.957 354.639 650.347 355.128 650.738 355.909C651.519 357.276 652.008 359.815 652.203 363.526C653.179 361.378 654.449 359.62 656.011 358.253C657.574 356.886 659.136 355.909 660.699 355.323C662.652 354.542 664.605 354.054 666.558 353.858C667.926 353.663 670.269 354.737 673.59 357.081C677.105 359.425 680.426 363.136 683.551 368.214C686.871 373.292 689.703 379.932 692.047 388.136C694.39 396.143 695.269 405.811 694.683 417.139ZM674.761 413.624C674.957 408.936 674.761 404.249 674.176 399.561C673.785 394.679 673.004 390.284 671.832 386.378C670.855 382.276 669.586 379.054 668.023 376.71C666.461 374.171 664.898 372.901 663.336 372.901C661.578 373.292 659.625 374.171 657.476 375.538C655.719 376.71 653.765 378.565 651.617 381.104C649.469 383.643 647.418 387.257 645.465 391.944C645.269 391.358 645.074 390.284 644.879 388.721C644.683 387.354 644.488 385.596 644.293 383.448C644.293 381.104 644.488 377.979 644.879 374.073C642.144 377.393 639.996 381.3 638.433 385.792C637.066 390.284 635.992 394.581 635.211 398.682C634.429 403.565 633.844 408.448 633.453 413.331C633.258 418.604 633.453 423.78 634.039 428.858C634.82 433.936 635.992 438.429 637.554 442.335C639.312 446.241 641.363 449.366 643.707 451.71C646.051 454.054 648.883 455.128 652.203 454.932C655.523 454.737 658.453 453.37 660.992 450.831C663.531 448.292 665.777 445.069 667.73 441.163C669.683 437.257 671.246 432.862 672.418 427.979C673.59 423.096 674.371 418.311 674.761 413.624ZM767.633 351.514C773.101 351.514 778.179 353.077 782.867 356.202C787.554 359.327 791.558 363.429 794.879 368.507C798.199 373.585 800.836 379.444 802.789 386.085C804.742 392.53 805.719 399.268 805.719 406.3C805.719 413.331 804.937 420.753 803.375 428.565C801.812 436.378 799.371 443.604 796.051 450.245C792.73 456.886 788.433 462.452 783.16 466.944C777.886 471.241 771.441 473.389 763.824 473.389C757.769 473.389 752.008 471.241 746.539 466.944C741.265 462.452 737.164 456.886 734.234 450.245C733.844 457.081 732.965 464.014 731.597 471.046C730.23 478.272 729.547 486.866 729.547 496.827C729.547 499.757 729.644 503.077 729.84 506.788C730.035 510.499 730.328 514.21 730.719 517.921C731.109 521.632 731.695 525.05 732.476 528.175C733.258 531.3 734.136 533.741 735.113 535.499C731.793 537.452 728.765 538.917 726.031 539.893C723.492 540.87 721.246 541.554 719.293 541.944C717.144 542.53 715.094 542.823 713.14 542.823C710.601 542.823 708.941 541.749 708.16 539.6C707.379 537.452 706.988 533.643 706.988 528.175C706.988 524.659 707.086 519.581 707.281 512.94C707.672 506.495 708.062 499.073 708.453 490.675C709.039 482.276 709.527 473.487 709.918 464.307C710.504 454.932 710.992 445.753 711.383 436.768C711.969 427.784 712.359 419.483 712.554 411.866C712.945 404.054 713.14 397.511 713.14 392.237C713.14 385.792 713.043 380.811 712.847 377.296C712.652 373.585 712.359 370.85 711.969 369.093C711.773 367.139 711.48 365.772 711.09 364.991C710.699 364.21 710.211 363.331 709.625 362.354C711.383 360.987 713.433 359.815 715.777 358.839C718.316 357.667 720.758 356.886 723.101 356.495C725.64 355.909 727.886 355.714 729.84 355.909C731.988 356.104 733.648 356.593 734.82 357.374C735.797 358.35 736.48 359.815 736.871 361.768C737.457 363.721 737.945 366.651 738.336 370.557C742.047 365.479 746.246 361.085 750.933 357.374C755.816 353.468 761.383 351.514 767.633 351.514ZM756.207 456.104C759.722 456.104 763.043 454.444 766.168 451.124C769.488 447.804 772.32 443.604 774.664 438.526C777.203 433.253 779.156 427.491 780.523 421.241C782.086 414.796 782.867 408.448 782.867 402.198C782.867 395.362 782.183 389.796 780.816 385.499C779.644 381.007 778.082 377.491 776.129 374.952C774.371 372.218 772.418 370.362 770.269 369.386C768.316 368.214 766.558 367.628 764.996 367.628C761.285 367.628 757.769 369.19 754.449 372.315C751.129 375.245 748.199 379.151 745.66 384.034C743.121 388.721 741.07 393.995 739.508 399.854C738.14 405.714 737.457 411.573 737.457 417.432C737.457 422.901 737.945 427.979 738.922 432.667C740.094 437.354 741.558 441.456 743.316 444.971C745.074 448.487 747.027 451.221 749.176 453.175C751.519 455.128 753.863 456.104 756.207 456.104Z" fill="#082B43"/>
</g>
<defs>
<clipPath id="clip0_3_6">
<rect width="1008" height="555" fill="white"/>
</clipPath>
</defs>
</svg>
